<?xml version="1.0" encoding="UTF-8"?>
<!DOCTYPE svg PUBLIC "-//W3C//DTD SVG 1.1//EN" "http://www.w3.org/Graphics/SVG/1.1/DTD/svg11.dtd">
<svg xmlns="http://www.w3.org/2000/svg" version="1.1" width="592px" height="136px" style="shape-rendering:geometricPrecision; text-rendering:geometricPrecision; image-rendering:optimizeQuality; fill-rule:evenodd; clip-rule:evenodd" xmlns:xlink="http://www.w3.org/1999/xlink">
<g><path style="opacity:1" fill="#8f8d8d" d="M -0.5,-0.5 C 196.833,-0.5 394.167,-0.5 591.5,-0.5C 591.5,44.8333 591.5,90.1667 591.5,135.5C 394.167,135.5 196.833,135.5 -0.5,135.5C -0.5,90.1667 -0.5,44.8333 -0.5,-0.5 Z"/></g>
<g><path style="opacity:1" fill="#f2d972" d="M 235.5,57.5 C 242.19,56.3306 243.857,58.4973 240.5,64C 235.262,64.5941 233.595,62.4274 235.5,57.5 Z"/></g>
<g><path style="opacity:1" fill="#fafafa" d="M 133.5,58.5 C 136.355,57.1968 139.355,57.1968 142.5,58.5C 144.774,62.772 147.441,66.772 150.5,70.5C 153.61,66.4594 156.61,62.2927 159.5,58C 162.167,57.3333 164.833,57.3333 167.5,58C 163.303,64.032 159.303,70.1986 155.5,76.5C 159.376,82.4202 163.376,88.2535 167.5,94C 164.833,94.6667 162.167,94.6667 159.5,94C 156.543,89.9199 153.71,85.7533 151,81.5C 147.921,85.3244 145.088,89.3244 142.5,93.5C 139.554,94.6548 136.554,94.8214 133.5,94C 137.754,88.1553 141.754,82.1553 145.5,76C 141.854,69.857 137.854,64.0236 133.5,58.5 Z"/></g>
<g><path style="opacity:1" fill="#f8dd70" d="M 206.5,72.5 C 211.64,73.4881 216.974,73.8214 222.5,73.5C 222.5,68.5 222.5,63.5 222.5,58.5C 224.5,58.5 226.5,58.5 228.5,58.5C 228.5,70.5 228.5,82.5 228.5,94.5C 226.5,94.5 224.5,94.5 222.5,94.5C 222.5,89.5 222.5,84.5 222.5,79.5C 217.167,79.5 211.833,79.5 206.5,79.5C 206.5,84.5 206.5,89.5 206.5,94.5C 204.167,94.5 201.833,94.5 199.5,94.5C 199.5,82.1667 199.5,69.8333 199.5,57.5C 201.833,57.5 204.167,57.5 206.5,57.5C 206.5,62.5 206.5,67.5 206.5,72.5 Z"/></g>
<g><path style="opacity:1" fill="#d2c07a" d="M 222.5,58.5 C 222.5,58.1667 222.5,57.8333 222.5,57.5C 224.833,57.5 227.167,57.5 229.5,57.5C 229.829,70.0113 229.495,82.3446 228.5,94.5C 228.5,82.5 228.5,70.5 228.5,58.5C 226.5,58.5 224.5,58.5 222.5,58.5 Z"/></g>
<g><path style="opacity:1" fill="#dfca77" d="M 286.5,69.5 C 286.44,70.0431 286.107,70.3764 285.5,70.5C 284.509,66.5546 284.176,62.5546 284.5,58.5C 282.833,58.5 281.167,58.5 279.5,58.5C 279.5,70.5 279.5,82.5 279.5,94.5C 278.505,82.3446 278.171,70.0113 278.5,57.5C 280.833,57.5 283.167,57.5 285.5,57.5C 285.183,61.7016 285.517,65.7016 286.5,69.5 Z"/></g>
<g><path style="opacity:1" fill="#f5db71" d="M 286.5,69.5 C 290.894,66.8483 295.394,66.8483 300,69.5C 300.667,70.8333 301.333,72.1667 302,73.5C 302.5,80.4921 302.666,87.4921 302.5,94.5C 300.167,94.5 297.833,94.5 295.5,94.5C 295.666,87.825 295.5,81.1583 295,74.5C 291.528,71.582 288.528,71.9154 286,75.5C 285.5,81.8246 285.334,88.1579 285.5,94.5C 283.5,94.5 281.5,94.5 279.5,94.5C 279.5,82.5 279.5,70.5 279.5,58.5C 281.167,58.5 282.833,58.5 284.5,58.5C 284.176,62.5546 284.509,66.5546 285.5,70.5C 286.107,70.3764 286.44,70.0431 286.5,69.5 Z"/></g>
<g><path style="opacity:1" fill="#f4da71" d="M 305.5,57.5 C 308.119,57.2317 310.619,57.565 313,58.5C 315.018,67.9055 317.351,77.2388 320,86.5C 322.81,76.9728 324.976,67.3062 326.5,57.5C 329.833,57.5 333.167,57.5 336.5,57.5C 338.19,67.2623 340.357,76.929 343,86.5C 345.333,77.1667 347.667,67.8333 350,58.5C 352.381,57.565 354.881,57.2317 357.5,57.5C 354.033,69.7019 351.033,82.0352 348.5,94.5C 344.833,94.5 341.167,94.5 337.5,94.5C 336.013,85.398 334.013,76.398 331.5,67.5C 329.291,76.1247 327.291,84.7914 325.5,93.5C 321.893,94.4892 318.226,94.8226 314.5,94.5C 311.974,82.0615 308.974,69.7281 305.5,57.5 Z"/></g>
<g><path style="opacity:1" fill="#fafafa" d="M 168.5,68.5 C 170.966,67.3659 173.633,67.1993 176.5,68C 177.96,71.0887 179.793,73.9221 182,76.5C 183.709,73.5815 185.542,70.7482 187.5,68C 190.167,67.3333 192.833,67.3333 195.5,68C 192.001,72.0018 189.001,76.3352 186.5,81C 189.001,85.6648 192.001,89.9982 195.5,94C 192.833,94.6667 190.167,94.6667 187.5,94C 185.542,91.2518 183.709,88.4185 182,85.5C 179.793,88.0779 177.96,90.9113 176.5,94C 173.833,94.6667 171.167,94.6667 168.5,94C 171.999,89.9982 174.999,85.6648 177.5,81C 175.096,76.3418 172.096,72.1751 168.5,68.5 Z"/></g>
<g><path style="opacity:1" fill="#f9df6f" d="M 235.5,67.5 C 237.5,67.5 239.5,67.5 241.5,67.5C 241.5,76.5 241.5,85.5 241.5,94.5C 239.5,94.5 237.5,94.5 235.5,94.5C 235.5,85.5 235.5,76.5 235.5,67.5 Z"/></g>
<g><path style="opacity:1" fill="#f6dc71" d="M 248.5,98.5 C 249.918,96.6921 251.918,96.0254 254.5,96.5C 258.214,100.481 262.047,100.481 266,96.5C 266.667,94.5 266.667,92.5 266,90.5C 257.14,97.1699 250.806,95.1699 247,84.5C 245.332,71.6091 250.832,66.1091 263.5,68C 265.557,71.2998 266.557,71.1331 266.5,67.5C 268.5,67.5 270.5,67.5 272.5,67.5C 272.931,78.5775 272.431,89.5775 271,100.5C 264.529,105.209 257.696,105.709 250.5,102C 249.695,100.887 249.028,99.7206 248.5,98.5 Z"/></g>
<g><path style="opacity:1" fill="#f6dc71" d="M 367.5,67.5 C 380.018,65.0423 386.685,70.0423 387.5,82.5C 380.833,82.5 374.167,82.5 367.5,82.5C 368.429,87.6021 371.429,89.7687 376.5,89C 378.519,87.1339 380.852,85.9673 383.5,85.5C 384.5,85.8333 385.5,86.1667 386.5,86.5C 381.906,94.5341 375.239,96.7008 366.5,93C 360.368,87.6579 358.868,81.1579 362,73.5C 364.04,71.6298 365.873,69.6298 367.5,67.5 Z"/></g>
<g><path style="opacity:1" fill="#f4da71" d="M 398.5,67.5 C 401.85,67.335 405.183,67.5017 408.5,68C 410.939,68.7739 412.773,70.2739 414,72.5C 415.429,79.7194 415.929,87.0528 415.5,94.5C 413.167,94.5 410.833,94.5 408.5,94.5C 408.649,93.448 408.483,92.448 408,91.5C 403.246,95.0642 398.246,95.3976 393,92.5C 390.413,87.5871 391.247,83.4204 395.5,80C 399.688,78.3693 404.021,77.5359 408.5,77.5C 407.826,72.8486 405.159,71.3486 400.5,73C 398.609,75.8016 395.942,76.9682 392.5,76.5C 392.932,72.4103 394.932,69.4103 398.5,67.5 Z"/></g>
<g><path style="opacity:1" fill="#f4da71" d="M 420.5,67.5 C 423.394,67.0423 425.894,67.709 428,69.5C 430.228,67.8866 432.728,67.22 435.5,67.5C 435.5,69.5 435.5,71.5 435.5,73.5C 431.818,72.7253 429.318,74.0586 428,77.5C 427.501,83.1569 427.334,88.8236 427.5,94.5C 425.167,94.5 422.833,94.5 420.5,94.5C 420.5,85.5 420.5,76.5 420.5,67.5 Z"/></g>
<g><path style="opacity:1" fill="#f4da71" d="M 444.5,67.5 C 448.182,67.3347 451.848,67.5014 455.5,68C 458.797,69.4633 460.797,71.9633 461.5,75.5C 457.908,77.2997 455.241,76.4664 453.5,73C 451.167,72.3333 448.833,72.3333 446.5,73C 445.075,74.7141 445.408,76.0475 447.5,77C 453.184,77.45 458.017,79.6166 462,83.5C 462.401,91.0991 458.735,94.7657 451,94.5C 444.118,94.9973 439.952,91.9973 438.5,85.5C 442.281,84.7886 445.281,85.9553 447.5,89C 450.099,89.769 452.599,89.6023 455,88.5C 455.684,87.2161 455.517,86.0495 454.5,85C 451.216,83.8755 447.883,82.8755 444.5,82C 439.857,79.9276 438.357,76.4276 440,71.5C 441.397,69.9297 442.897,68.5964 444.5,67.5 Z"/></g>
<g><path style="opacity:1" fill="#bfb17f" d="M 222.5,57.5 C 222.5,57.8333 222.5,58.1667 222.5,58.5C 222.5,63.5 222.5,68.5 222.5,73.5C 216.974,73.8214 211.64,73.4881 206.5,72.5C 211.5,72.5 216.5,72.5 221.5,72.5C 221.179,67.3054 221.513,62.3054 222.5,57.5 Z"/></g>
<g><path style="opacity:1" fill="#928f8c" d="M 370.5,72.5 C 374.849,71.5769 378.183,72.9102 380.5,76.5C 376.167,77.8333 371.833,77.8333 367.5,76.5C 368.524,75.1482 369.524,73.8149 370.5,72.5 Z"/></g>
<g><path style="opacity:1" fill="#928f8c" d="M 257.5,72.5 C 265.431,72.6603 268.265,76.6603 266,84.5C 263.947,88.2916 260.781,89.4582 256.5,88C 252.254,82.4832 252.588,77.3165 257.5,72.5 Z"/></g>
<g><path style="opacity:1" fill="#93908b" d="M 403.5,82.5 C 405.167,82.5 406.833,82.5 408.5,82.5C 407.973,88.849 404.639,91.0157 398.5,89C 397.14,87.0624 397.473,85.3957 399.5,84C 401.058,83.79 402.391,83.29 403.5,82.5 Z"/></g>
<g><path style="opacity:1" fill="#c7b77e" d="M 254.5,96.5 C 251.918,96.0254 249.918,96.6921 248.5,98.5C 247.596,97.791 247.263,96.791 247.5,95.5C 250.059,95.1984 252.393,95.5318 254.5,96.5 Z"/></g>
</svg>
